<?xml version="1.0" encoding="utf-8"?>
<!-- Generator: Adobe Illustrator 21.0.2, SVG Export Plug-In . SVG Version: 6.00 Build 0)  -->
<svg version="1.1" id="Layer_1" xmlns="http://www.w3.org/2000/svg" xmlns:xlink="http://www.w3.org/1999/xlink" x="0px" y="0px"
	 viewBox="0 0 500 500.3" style="enable-background:new 0 0 500 500.3;" xml:space="preserve">
<path d="M450.3,47.4c-63.2-63.2-168.5-63.2-234.4,0c-50,52.7-60.6,126.4-31.6,187c5.3,13.2,5.3,31.6-5.3,42.1L158,302.8
	c-10.5,10.5-23.7,26.3-29,18.4c-5.3-5.3-21.1-2.6-31.6,7.9L7.9,418.7c-10.5,10.5-10.5,29,0,39.5l34.2,34.2c10.5,10.5,29,10.5,39.5,0
	l89.5-89.5c10.5-10.5,13.2-23.7,7.9-31.6c-5.3-5.3,5.3-13.2,15.8-23.7l29-26.3c10.5-10.5,29-13.2,42.1-5.3
	c60.6,29,136.9,18.4,187-31.6C516.1,218.6,516.1,113.2,450.3,47.4 M323.9,271.2c-60.6-5.3-105.3-55.3-100.1-115.9
	S279.1,50,339.7,55.3S445,110.6,439.8,171.2C437.1,229.1,384.5,273.9,323.9,271.2"/>
</svg>
